<?xml version="1.0" standalone="no"?>
<!DOCTYPE svg PUBLIC "-//W3C//DTD SVG 20010904//EN"
 "http://www.w3.org/TR/2001/REC-SVG-20010904/DTD/svg10.dtd">
<svg version="1.0" xmlns="http://www.w3.org/2000/svg"
 width="250.000000pt" height="250.000000pt" viewBox="0 0 250.000000 250.000000"
 preserveAspectRatio="xMidYMid meet">
<metadata>
Created by potrace 1.11, written by Peter Selinger 2001-2013
</metadata>
<g transform="translate(0.000000,250.000000) scale(0.100000,-0.100000)"
fill="#000000" stroke="none">
<path d="M1070 2315 c-240 -54 -445 -191 -589 -394 -107 -150 -153 -255 -191
-431 -25 -119 -28 -348 -4 -460 70 -339 281 -622 559 -750 39 -18 77 -36 85
-40 35 -17 131 -40 212 -51 128 -18 298 4 403 50 11 5 42 17 69 26 27 10 87
44 135 76 205 138 358 351 432 605 31 105 32 116 33 304 1 129 -3 209 -11 235
-7 22 -22 74 -34 115 -59 209 -212 423 -400 562 -57 42 -208 114 -289 138 -97
29 -312 37 -410 15z m364 -35 c12 -4 41 -14 66 -21 148 -41 328 -173 439 -321
60 -78 141 -230 141 -263 0 -8 4 -23 9 -33 54 -106 75 -430 38 -582 -30 -123
-34 -136 -76 -232 -89 -202 -278 -400 -456 -479 -50 -22 -175 -60 -175 -54 0
2 13 26 28 52 36 63 94 206 128 316 30 102 72 170 152 247 72 70 123 146 155
235 45 125 82 188 146 247 63 58 64 61 64 148 0 50 -13 100 -25 100 -26 0 -80
-55 -114 -115 -19 -36 -39 -65 -44 -65 -4 0 -6 26 -3 58 4 47 2 60 -9 65 -11
4 -31 -20 -70 -86 -30 -51 -58 -104 -62 -119 -9 -39 -144 -167 -176 -168 -46
-1 -124 -27 -225 -76 -98 -47 -102 -48 -189 -46 -66 1 -94 -3 -113 -15 -28
-19 -45 -8 -37 25 4 13 14 22 26 22 39 0 58 19 58 58 0 21 5 43 12 50 9 9 5
19 -20 45 -23 23 -32 42 -32 65 0 23 -8 41 -26 57 -23 21 -37 25 -94 25 -81 0
-125 -24 -154 -84 -21 -44 -45 -175 -46 -249 0 -49 -13 -84 -37 -102 -11 -8
-9 -19 12 -63 14 -28 25 -56 25 -61 0 -11 80 -81 92 -81 5 0 12 9 16 20 6 16
15 0 41 -72 55 -158 143 -382 159 -405 19 -30 7 -30 -78 -2 -93 30 -135 52
-225 117 -171 123 -309 333 -376 572 -21 75 -23 107 -24 270 0 231 17 313 108
500 133 278 393 476 672 511 68 8 267 1 299 -11z m130 -1232 c-21 -29 -55 -69
-76 -89 -21 -20 -38 -41 -38 -48 0 -7 -34 -59 -75 -116 -41 -58 -83 -122 -92
-142 -19 -42 -42 -73 -54 -73 -5 0 -16 25 -25 56 -15 53 -15 71 2 165 5 31 1
41 -26 73 -29 32 -30 36 -13 42 17 7 127 52 188 79 17 7 59 25 95 39 36 15 81
36 100 46 53 27 55 24 14 -32z"/>
</g>
</svg>
